<svg id="Layer_2" data-name="Layer 2" xmlns="http://www.w3.org/2000/svg" viewBox="0 0 313.87 296.56"><defs><style>.cls-1{fill:#6ac6b6;}</style></defs><title>logoSierra</title><path class="cls-1" d="M168.91,166.18l-59.41-59.4h0l-.13-.12h0a.86.86,0,0,1-.14-.13,34.54,34.54,0,1,1,57.68-15.17h0s11.59-5.5,17.17-5.45a50.38,50.38,0,1,0-85.86,31.84c1,1,2.13,2,3.23,2.94l31.8,31.79h0l25.62,25.62a.52.52,0,0,0,.11.1,34.54,34.54,0,1,1-57.85,15.74h0a70.36,70.36,0,0,1-17.06,5.84A50.38,50.38,0,1,0,170,167.2C169.63,166.85,169.26,166.52,168.91,166.18Z" transform="translate(-23.2 -31.72)"/><path class="cls-1" d="M110.22,177.26,128,159.49l-11-11-18.7,18.7-.1.11a34.54,34.54,0,1,1-15.74-57.85h0a71.3,71.3,0,0,1-5.84-17.06,50.38,50.38,0,1,0,32.58,85.91C109.56,178,109.89,177.62,110.22,177.26Z" transform="translate(-23.2 -31.72)"/><path class="cls-1" d="M334.33,262.33c-6.27-17.68-24.83-21.88-37.1-19.36,0,0,17.82,12.28,21.74,24.35a34.54,34.54,0,0,1-65.71,21.32.74.74,0,0,0,0-.14L242,254h0l-13.88-42.76c-.32-1.41-.7-2.82-1.15-4.22a50.18,50.18,0,0,0-11.43-19.17,50.38,50.38,0,1,0-56.89-81.29q-1.56,1.56-3,3.23L140.4,125.16l11,11,18.27-18.27h0l.13-.12h0l.13-.14a34.54,34.54,0,1,1,15.17,57.69h0s5.5,11.59,5.45,17.17a53.08,53.08,0,0,0,5.35.12h0c4.88,4,12.16,7.64,16.16,19.19a1.27,1.27,0,0,1,.06.18h0l.06.17h0L238.06,292c.14.47.27.94.42,1.41A50.38,50.38,0,0,0,302,325.81C328.42,317.22,343.62,288.56,334.33,262.33Z" transform="translate(-23.2 -31.72)"/></svg>