<?xml version="1.0" encoding="utf-8"?>
<!-- Generator: Adobe Illustrator 23.1.1, SVG Export Plug-In . SVG Version: 6.00 Build 0)  -->
<svg version="1.1" xmlns="http://www.w3.org/2000/svg" xmlns:xlink="http://www.w3.org/1999/xlink" x="0px" y="0px"
	 viewBox="0 0 360 360" style="enable-background:new 0 0 360 360;" xml:space="preserve">
<style type="text/css">
	.st0{display:none;}
	.st1{display:inline;fill:#6AC7B7;}
	.st2{display:inline;}
</style>
<g id="Layer_1" class="st0">
	<path class="st1" d="M167.02,164.36l-59.41-59.4l0,0l-0.13-0.12l0,0c-0.05-0.04-0.1-0.08-0.14-0.13
		c-13.5-13.48-13.51-35.35-0.03-48.85s35.35-13.51,48.85-0.03c8.82,8.81,12.21,21.7,8.87,33.71l0,0c0,0,11.59-5.5,17.17-5.45
		c2.09-27.75-18.71-51.93-46.45-54.02S83.8,48.77,81.71,76.52c-1.1,14.64,4.23,29.03,14.62,39.41c1,1,2.13,2,3.23,2.94l31.8,31.79
		l0,0l25.62,25.62c0.03,0.04,0.07,0.07,0.11,0.1c13.49,13.49,13.49,35.36,0.01,48.85s-35.36,13.49-48.85,0.01
		c-8.66-8.66-12.09-21.26-9.01-33.11l0,0c-5.41,2.67-11.15,4.63-17.06,5.84c-1.67,27.77,19.49,51.64,47.26,53.32
		c27.77,1.67,51.64-19.49,53.32-47.26c0.87-14.38-4.47-28.44-14.65-38.63C167.74,165.03,167.37,164.7,167.02,164.36z"/>
	<path class="st1" d="M108.33,175.44l17.78-17.77l-11-11l-18.7,18.7l-0.1,0.11c-13.49,13.49-35.36,13.49-48.85,0.01
		c-13.49-13.49-13.49-35.36-0.01-48.85c8.66-8.66,21.26-12.09,33.11-9.01l0,0c-2.66-5.42-4.62-11.15-5.84-17.06
		c-27.77-1.68-51.65,19.47-53.33,47.24s19.47,51.65,47.24,53.33c14.4,0.87,28.47-4.47,38.67-14.67
		C107.67,176.18,108,175.8,108.33,175.44z"/>
	<path class="st1" d="M332.44,260.51c-5.48-16.64-32.2-24.68-40.75-18.08c0,0,21.47,11,25.39,23.07
		c5.89,18.15-4.05,37.63-22.2,43.51c-18.15,5.89-37.63-4.05-43.51-22.19l0,0c0-0.05,0-0.09,0-0.14l-11.26-34.5l0,0l-13.88-42.76
		c-0.32-1.41-0.7-2.82-1.15-4.22c-2.32-7.17-6.23-13.72-11.43-19.17c25.23-11.74,36.16-41.71,24.42-66.93
		c-11.74-25.23-41.71-36.16-66.93-24.42c-5.35,2.49-10.21,5.89-14.38,10.06c-1.04,1.04-2.04,2.12-3,3.23l-15.25,15.37l11,11
		l18.27-18.27l0,0l0.13-0.12l0,0l0.13-0.14c13.48-13.49,35.35-13.5,48.85-0.02s13.5,35.35,0.02,48.85
		c-8.81,8.82-21.69,12.2-33.69,8.86l0,0c0,0,5.5,11.59,5.45,17.17c1.78,0.13,3.57,0.17,5.35,0.12l0,0c4.88,4,12.16,7.64,16.16,19.19
		c0.02,0.06,0.04,0.12,0.06,0.18l0,0l0.06,0.17l0,0l25.88,79.85c0.14,0.47,0.27,0.94,0.42,1.41c8.26,26.57,36.5,41.42,63.08,33.16
		c26.57-8.26,41.42-36.5,33.16-63.08c-0.12-0.4-0.25-0.79-0.38-1.19V260.51z"/>
	<path class="st2" d="M174.94,85.58"/>
	<path class="st2" d="M174.94,85.58"/>
</g>
<g id="Layer_2">
	<path class="st0" d="M310.28,245.02c0,0,4.78,5.27,6.84,9.44"/>
	<path class="st0" d="M389.62,334.69c0,0,4.78,5.27,6.84,9.44"/>
	<g>
		<path d="M308.93,256.66c-2.45-9.41-8.13-17.44-16.1-22.85l0.05-0.08l-2.3-1.35c-9.16-5.38-19.87-6.86-30.15-4.19l-2.44,0.63
			l1.97,7.54l2.43-0.63c8.07-2.1,16.48-1.01,23.73,3.07l0.51,0.3c7.37,4.32,12.61,11.26,14.76,19.52
			c4.44,17.06-5.82,34.56-22.89,39.01c-17.06,4.44-34.57-5.83-39.01-22.91l-18.9-69.91c-2.42-9.29-7.98-17.23-15.8-22.63
			c5.73-1.94,10.94-5.18,15.3-9.54c15.51-15.51,15.51-40.74,0-56.25c-15.5-15.5-40.73-15.51-56.22-0.02l-23.06,22.64l-22.67-23.1
			c-12.47-12.47-12.47-32.76,0-45.23c12.47-12.47,32.76-12.47,45.23,0c6.04,6.04,9.37,14.07,9.37,22.61v2.45
			c2.23-1.14,4.82-2.19,7.78-2.97c-0.13-10.43-4.25-20.21-11.64-27.6c-7.5-7.5-17.49-11.63-28.12-11.63s-20.62,4.13-28.12,11.63
			c-15.5,15.5-15.51,40.73-0.02,56.22l22.65,23.07l-23.09,22.66c-6.04,6.04-14.07,9.37-22.61,9.37c-8.54,0-16.57-3.33-22.61-9.37
			c-6.04-6.04-9.37-14.07-9.37-22.61c0-8.54,3.33-16.57,9.37-22.61c6.04-6.04,14.07-9.37,22.61-9.37h2.52v-0.92
			c-0.85-2.05-1.6-4.34-2.14-6.87h-0.38c-10.62,0-20.61,4.14-28.12,11.65c-7.51,7.51-11.65,17.5-11.65,28.12
			c0,10.62,4.14,20.61,11.65,28.12c7.51,7.51,17.5,11.65,28.12,11.65c10.62,0,20.6-4.13,28.1-11.62l23.06-22.64l22.66,23.08
			c6.04,6.04,9.37,14.07,9.37,22.61c0,8.54-3.33,16.57-9.37,22.61c-6.04,6.04-14.07,9.37-22.61,9.37c-8.54,0-16.57-3.33-22.61-9.37
			c-6.04-6.04-9.37-14.07-9.37-22.61v-2.16c-2.25,1.07-4.85,2.03-7.78,2.73c0.15,10.41,4.26,20.18,11.64,27.55
			c7.51,7.51,17.5,11.65,28.12,11.65c10.62,0,20.61-4.14,28.12-11.65c7.51-7.51,11.65-17.5,11.65-28.12
			c0-10.62-4.13-20.6-11.62-28.1l-22.63-23.05l23.09-22.67c12.47-12.47,32.76-12.47,45.23,0c12.47,12.47,12.47,32.76,0,45.23
			c-5.96,5.95-13.87,9.28-22.26,9.36c-0.19,0.01-4.25-0.01-7.9,1.05c0.99,1.65,1.97,3.56,2.83,5.74c3.87,0.63,7.57,1.96,11.03,3.99
			c7.37,4.32,12.61,11.26,14.77,19.55l18.9,69.91c4.66,17.87,20.83,29.74,38.5,29.74c3.31,0,6.67-0.42,10.01-1.29
			C301.69,299.64,314.46,277.88,308.93,256.66z"/>
	</g>
</g>
</svg>
